<?xml version="1.0" encoding="utf-8"?>
<!-- Generator: Adobe Illustrator 26.0.0, SVG Export Plug-In . SVG Version: 6.00 Build 0)  -->
<svg version="1.1" id="Camada_1" xmlns="http://www.w3.org/2000/svg" xmlns:xlink="http://www.w3.org/1999/xlink" x="0px" y="0px"
	 viewBox="0 0 24 24" style="enable-background:new 0 0 24 24;" xml:space="preserve">
<style type="text/css">
	.st0{fill:#FFFFFF;}
	.st1{fill:#FFFEFE;}
	.st2{fill:#AE1D1C;}
	.st3{fill:#D1CFCD;}
</style>
<ellipse class="st0" cx="12" cy="12.55" rx="11.97" ry="10.98"/>
<g>
	<g>
		<path class="st1" d="M11.99,19.63c-2.55,0-5.11,0-7.66,0c-0.05,0-0.06-0.01-0.06-0.06c0-4.72,0-9.43,0-14.15
			c0-0.05,0.01-0.06,0.06-0.06c5.11,0,10.23,0,15.34,0c0.05,0,0.06,0.01,0.06,0.06c0,4.72,0,9.43,0,14.15
			c0,0.05-0.01,0.06-0.06,0.06C17.11,19.63,14.55,19.63,11.99,19.63z M5.46,15.01c0,0.01,0,0.02,0.01,0.02
			c0.01,0.01,0.01,0.02,0.02,0.03c0.12,0.28,0.26,0.55,0.41,0.81c0.29,0.5,0.65,0.94,1.06,1.35c0.38,0.37,0.8,0.69,1.26,0.96
			c0.35,0.21,0.71,0.37,1.09,0.51c0.3,0.11,0.62,0.2,0.94,0.26c0.19,0.04,0.39,0.07,0.59,0.09c0.01,0.01,0.02,0.01,0.03,0.01
			c0.16,0,0.32,0.02,0.47,0.02c0.18,0,0.36,0,0.54-0.01c0.17-0.01,0.34-0.02,0.51-0.04c0.27-0.03,0.53-0.08,0.79-0.15
			c0.34-0.09,0.67-0.2,1-0.34c0.2-0.09,0.39-0.18,0.58-0.29c0.32-0.18,0.62-0.38,0.91-0.61c0.27-0.21,0.51-0.45,0.75-0.7
			c0.22-0.24,0.41-0.49,0.59-0.75c0.18-0.26,0.34-0.54,0.48-0.83c0.15-0.32,0.28-0.64,0.38-0.98c0.08-0.26,0.14-0.52,0.18-0.78
			c0.01-0.04,0.01-0.07,0.05-0.09c0.01,0,0.01-0.01,0.02-0.01c0.39-0.1,0.78-0.19,1.17-0.29c0.05-0.01,0.05-0.03,0.02-0.07
			c-0.33-0.43-0.66-0.86-0.98-1.3c-0.03-0.03-0.05-0.04-0.09-0.03c-0.41,0.1-0.83,0.21-1.24,0.31c-0.86,0.21-1.73,0.43-2.59,0.64
			c-0.2,0.05-0.4,0.1-0.6,0.14c-0.04-0.01-0.03-0.04-0.03-0.06c0-0.65,0-1.3,0-1.95c0-0.9,0-1.8,0-2.7c0-0.07,0-0.07,0.06-0.04
			c0.21,0.11,0.4,0.23,0.59,0.37c0.14,0.1,0.28,0.21,0.42,0.33c0.2,0.18,0.39,0.37,0.56,0.58c0.12,0.14,0.22,0.29,0.32,0.45
			c0.16,0.24,0.29,0.48,0.4,0.75c0.02,0.04,0.04,0.06,0.09,0.05c0.17-0.04,0.33-0.09,0.5-0.13c0.33-0.08,0.66-0.16,0.99-0.25
			c0.04-0.01,0.05-0.03,0.03-0.07c-0.07-0.22-0.16-0.43-0.26-0.63c-0.12-0.24-0.26-0.48-0.4-0.71c-0.22-0.34-0.47-0.66-0.75-0.95
			c-0.16-0.17-0.33-0.32-0.5-0.47c-0.23-0.2-0.47-0.37-0.73-0.54c-0.25-0.16-0.51-0.3-0.78-0.43c-0.18-0.09-0.37-0.16-0.56-0.23
			c-0.01-0.01-0.03-0.03-0.04-0.03c-0.11-0.04-0.23-0.08-0.34-0.11c-0.39-0.11-0.79-0.18-1.19-0.22c-0.01,0-0.02,0.01-0.03,0.01
			c-0.16-0.02-0.33-0.02-0.5-0.03c-0.23-0.01-0.46,0.01-0.68,0.02c-0.09,0.01-0.17,0.02-0.26,0.03c-0.13,0.02-0.26,0.04-0.4,0.06
			c-0.17,0.03-0.34,0.07-0.51,0.12c-0.2,0.06-0.39,0.12-0.59,0.2c-0.27,0.1-0.54,0.22-0.79,0.36c-0.26,0.14-0.5,0.3-0.74,0.47
			C7.43,7.36,7.2,7.57,6.97,7.78C6.74,8,6.54,8.24,6.34,8.49C6.15,8.74,5.98,9,5.83,9.27C5.7,9.51,5.58,9.75,5.47,10.01
			c-0.09,0.21-0.16,0.43-0.23,0.65c-0.09,0.29-0.15,0.58-0.2,0.88c-0.03,0.22-0.06,0.44-0.07,0.66c-0.01,0.44-0.01,0.88,0.07,1.31
			c0.04,0.23,0.08,0.46,0.14,0.69C5.26,14.47,5.37,14.74,5.46,15.01L5.46,15.01z"/>
		<path class="st2" d="M10.84,19.05c-0.2-0.03-0.39-0.05-0.59-0.09c-0.32-0.06-0.63-0.15-0.94-0.26c-0.38-0.14-0.74-0.31-1.09-0.51
			c-0.46-0.27-0.88-0.59-1.26-0.96c-0.41-0.4-0.77-0.85-1.06-1.35c-0.15-0.26-0.29-0.53-0.41-0.81c0-0.01-0.01-0.02-0.02-0.03
			c0-0.01,0-0.02-0.01-0.02c0,0,0,0,0,0c0-0.03,0.03-0.03,0.05-0.04c0.48-0.12,0.96-0.23,1.44-0.35c0.06-0.01,0.08,0,0.1,0.05
			c0.02,0.04,0.04,0.08,0.06,0.11c0.2,0.37,0.43,0.71,0.72,1.01c0.4,0.43,0.85,0.78,1.37,1.04c0.07,0.04,0.07,0.04,0.07-0.05
			c0-0.38,0-0.77,0-1.15c0-0.55,0-1.1,0-1.65c0-0.59,0-1.19,0-1.78c0-0.9,0-1.79,0-2.69c0-0.11,0.01-0.22,0-0.34
			c0-0.01,0-0.02,0-0.04C9.3,9.14,9.33,9.13,9.35,9.13C9.44,9.1,9.54,9.09,9.63,9.05c0.01,0,0.01,0,0.02,0
			c0.03,0,0.05-0.01,0.07-0.02l0,0c0.02,0.01,0.04,0,0.06-0.01c0.39-0.1,0.78-0.19,1.16-0.29c0,0.01,0,0.01,0.01,0.02
			c0,0.03,0,0.05,0,0.08c0,1.57,0,3.15,0,4.72c0,0.02,0,0.04,0,0.05c0,0.03,0.01,0.04,0.04,0.03c0.14-0.04,0.28-0.07,0.42-0.11l0,0
			c0.04,0,0.07-0.01,0.1-0.03c0.2-0.05,0.39-0.1,0.59-0.14c0.05-0.01,0.07-0.03,0.07-0.08c0-0.56,0-1.11,0-1.67c0-0.8,0-1.6,0-2.4
			c0-0.03,0-0.05,0-0.08c0.02-0.02,0.01-0.05,0.01-0.07c0-0.99,0-1.97,0-2.96c0-0.05,0-0.1,0-0.15c0.4,0.04,0.8,0.11,1.19,0.22
			c0.12,0.03,0.23,0.07,0.34,0.11c0.02,0.01,0.03,0.02,0.04,0.03c0,0.02,0,0.04,0,0.06c0,0.11,0.02,0.22,0.02,0.32
			c0.01,0.51,0,1.01,0,1.52c0,1.06,0,2.11,0,3.17c0,0.48,0,0.95,0,1.43c0,0.03,0,0.07,0,0.1c0,0.03,0.02,0.04,0.04,0.02
			c0.2-0.05,0.4-0.1,0.6-0.14c0.86-0.21,1.73-0.42,2.59-0.64c0.41-0.1,0.83-0.2,1.24-0.31c0.04-0.01,0.06,0,0.09,0.03
			c0.33,0.43,0.65,0.87,0.98,1.3c0.03,0.04,0.04,0.05-0.02,0.07c-0.39,0.1-0.78,0.19-1.17,0.29c-0.01,0-0.01,0.01-0.02,0.01
			c-0.01,0-0.02,0-0.04,0c-0.4,0.1-0.8,0.2-1.2,0.3c-0.18,0.05-0.37,0.08-0.55,0.14c-0.01,0-0.02,0-0.02,0
			c-0.44,0.11-0.87,0.22-1.31,0.32c-0.39,0.1-0.77,0.19-1.16,0.29c-0.04,0.01-0.06,0.02-0.06,0.07c0,0.42,0,0.84-0.01,1.25
			c0,0.05-0.02,0.07-0.07,0.08c-0.18,0.04-0.36,0.09-0.54,0.13c-0.33,0.08-0.66,0.16-0.99,0.25c0-0.04,0-0.07,0-0.11
			c0-0.4,0-0.8,0-1.2c0-0.05-0.01-0.06-0.06-0.05c-0.26,0.07-0.52,0.13-0.78,0.19c-0.12,0.03-0.25,0.05-0.37,0.1
			c-0.02,0.03-0.01,0.06-0.01,0.09c0,1.18,0,2.36,0,3.54C10.95,19.05,10.95,19.05,10.84,19.05z"/>
		<path class="st3" d="M12.18,5.94c0,0.05,0,0.1,0,0.15c0,0.99,0,1.97,0,2.96c0,0.02,0.01,0.05-0.01,0.07c0-0.02,0-0.05,0-0.07
			c0-0.45,0-0.91,0-1.36c0-0.05-0.02-0.07-0.06-0.07c-0.13-0.01-0.26-0.03-0.39-0.04c-0.35-0.01-0.7,0-1.05,0.06
			c-0.32,0.05-0.64,0.13-0.94,0.25c-0.35,0.13-0.68,0.3-1,0.51C8.49,8.56,8.27,8.74,8.06,8.94C7.94,9.05,7.83,9.16,7.73,9.29
			c-0.14,0.17-0.28,0.35-0.4,0.54c-0.14,0.22-0.26,0.45-0.37,0.7c-0.12,0.28-0.21,0.57-0.28,0.87c-0.06,0.26-0.1,0.52-0.11,0.78
			c-0.01,0.33-0.01,0.66,0.05,0.98c0.05,0.31,0.13,0.62,0.23,0.92c0.12,0.34,0.28,0.67,0.47,0.97c0.15,0.24,0.32,0.46,0.5,0.66
			c0.22,0.25,0.47,0.48,0.73,0.68c0.14,0.1,0.28,0.2,0.43,0.29c0.08,0.05,0.17,0.1,0.27,0.15c0-0.05,0-0.08,0-0.11
			c0-1.56,0-3.11,0-4.67c0-0.94,0-1.87,0-2.81c0-0.02-0.01-0.04,0.01-0.06c0.01,0.11,0,0.22,0,0.34c0,0.9,0,1.79,0,2.69
			c0,0.59,0,1.19,0,1.78c0,0.55,0,1.1,0,1.65c0,0.38,0,0.77,0,1.15c0,0.08,0,0.08-0.07,0.05c-0.52-0.27-0.97-0.62-1.37-1.04
			c-0.28-0.31-0.52-0.64-0.72-1.01c-0.02-0.04-0.04-0.08-0.06-0.11c-0.02-0.05-0.05-0.06-0.1-0.05C6.48,14.74,6,14.86,5.52,14.97
			c-0.02,0.01-0.05,0-0.05,0.04c-0.09-0.27-0.2-0.54-0.27-0.82c-0.06-0.23-0.1-0.46-0.14-0.69c-0.08-0.43-0.08-0.87-0.07-1.31
			c0.01-0.22,0.03-0.44,0.07-0.66c0.05-0.3,0.11-0.59,0.2-0.88c0.07-0.22,0.14-0.43,0.23-0.65c0.1-0.25,0.22-0.5,0.36-0.74
			C5.98,9,6.15,8.74,6.34,8.49C6.54,8.24,6.74,8,6.97,7.78c0.22-0.21,0.46-0.42,0.71-0.6c0.24-0.17,0.48-0.33,0.74-0.47
			c0.26-0.14,0.52-0.26,0.79-0.36c0.19-0.07,0.39-0.14,0.59-0.2c0.17-0.05,0.34-0.08,0.51-0.12c0.13-0.03,0.26-0.05,0.4-0.06
			c0.08-0.01,0.17-0.03,0.26-0.03c0.23-0.01,0.46-0.03,0.68-0.02c0.17,0.01,0.33,0.01,0.5,0.03C12.16,5.95,12.17,5.94,12.18,5.94z"
			/>
		<path class="st3" d="M16.32,13.97c0.18-0.06,0.36-0.09,0.55-0.14c0.4-0.1,0.8-0.2,1.2-0.3c0.01,0,0.02,0,0.04,0
			c-0.04,0.02-0.04,0.05-0.05,0.09c-0.05,0.26-0.11,0.53-0.18,0.78c-0.1,0.34-0.23,0.66-0.38,0.98c-0.14,0.29-0.3,0.56-0.48,0.83
			c-0.18,0.26-0.38,0.52-0.59,0.75c-0.23,0.25-0.48,0.48-0.75,0.7c-0.29,0.23-0.59,0.43-0.91,0.61c-0.19,0.11-0.38,0.2-0.58,0.29
			c-0.32,0.14-0.65,0.26-1,0.34c-0.26,0.07-0.52,0.12-0.79,0.15c-0.17,0.02-0.34,0.03-0.51,0.04c-0.18,0.01-0.36,0.01-0.54,0.01
			c-0.16,0-0.32-0.02-0.47-0.02c-0.01,0-0.02,0-0.03-0.01c0.11,0,0.11,0,0.11-0.12c0-1.18,0-2.36,0-3.54c0-0.03-0.01-0.06,0.01-0.09
			c0,0.02,0,0.04,0,0.06c0,0.65,0,1.31,0,1.96c0,0.06,0.02,0.07,0.07,0.08c0.11,0.01,0.22,0.02,0.33,0.03
			c0.22,0.02,0.44,0.01,0.67-0.01c0.15-0.01,0.29-0.03,0.43-0.06c0.23-0.04,0.46-0.09,0.69-0.16c0.2-0.06,0.4-0.14,0.59-0.23
			c0.2-0.09,0.4-0.2,0.59-0.32c0.16-0.11,0.32-0.22,0.47-0.35c0.22-0.19,0.43-0.39,0.62-0.61c0.21-0.26,0.4-0.53,0.56-0.83
			c0.13-0.25,0.24-0.51,0.33-0.77C16.31,14.05,16.35,14.01,16.32,13.97z"/>
		<path class="st3" d="M13.81,12.92c-0.03,0.02-0.04,0.01-0.04-0.02c0-0.03,0-0.07,0-0.1c0-0.48,0-0.95,0-1.43c0-1.06,0-2.11,0-3.17
			c0-0.51,0.01-1.01,0-1.52c0-0.11-0.02-0.22-0.02-0.32c0-0.02,0-0.04,0-0.06c0.19,0.06,0.38,0.14,0.56,0.23
			c0.27,0.13,0.53,0.27,0.78,0.43c0.25,0.16,0.5,0.34,0.73,0.54c0.17,0.15,0.34,0.3,0.5,0.47c0.28,0.29,0.53,0.61,0.75,0.95
			c0.15,0.23,0.29,0.46,0.4,0.71c0.1,0.21,0.19,0.41,0.26,0.63c0.01,0.04,0.01,0.06-0.03,0.07c-0.33,0.08-0.66,0.16-0.99,0.25
			c-0.17,0.04-0.33,0.08-0.5,0.13c-0.05,0.01-0.07,0-0.09-0.05c-0.11-0.26-0.24-0.51-0.4-0.75c-0.1-0.15-0.21-0.3-0.32-0.45
			c-0.17-0.21-0.36-0.4-0.56-0.58c-0.13-0.12-0.27-0.23-0.42-0.33c-0.19-0.14-0.39-0.26-0.59-0.37c-0.06-0.03-0.06-0.03-0.06,0.04
			c0,0.9,0,1.8,0,2.7c0,0.65,0,1.3,0,1.95C13.79,12.88,13.77,12.92,13.81,12.92z"/>
		<path class="st3" d="M5.46,15.01c0.01,0,0.01,0.01,0.01,0.02C5.46,15.03,5.46,15.02,5.46,15.01z"/>
		<path class="st1" d="M9.27,9.19C9.26,9.2,9.26,9.22,9.26,9.24c0,0.94,0,1.87,0,2.81c0,1.56,0,3.11,0,4.67c0,0.03,0,0.07,0,0.11
			c-0.1-0.05-0.18-0.1-0.27-0.15c-0.15-0.09-0.29-0.19-0.43-0.29c-0.27-0.2-0.51-0.43-0.73-0.68c-0.19-0.21-0.35-0.43-0.5-0.66
			c-0.19-0.31-0.35-0.63-0.47-0.97c-0.11-0.3-0.18-0.61-0.23-0.92c-0.05-0.33-0.06-0.65-0.05-0.98c0.01-0.26,0.05-0.52,0.11-0.78
			c0.07-0.3,0.16-0.59,0.28-0.87c0.1-0.24,0.23-0.47,0.37-0.7c0.12-0.19,0.26-0.37,0.4-0.54c0.1-0.12,0.21-0.24,0.32-0.35
			c0.21-0.2,0.44-0.38,0.68-0.54c0.31-0.21,0.65-0.38,1-0.51c0.31-0.11,0.62-0.19,0.94-0.25c0.35-0.06,0.7-0.07,1.05-0.06
			c0.13,0,0.26,0.02,0.39,0.04c0.04,0,0.06,0.02,0.06,0.07c0,0.45,0,0.91,0,1.36c0,0.02,0,0.05,0,0.07c0,0.03,0,0.05,0,0.08
			c0,0.8,0,1.6,0,2.4c0,0.56,0,1.11,0,1.67c0,0.05-0.02,0.07-0.07,0.08c-0.2,0.04-0.39,0.09-0.59,0.14c-0.04,0-0.07,0-0.1,0.03
			c0,0,0,0,0,0c-0.02,0-0.03,0-0.05,0c-0.1,0.03-0.21,0.05-0.31,0.08c-0.09,0.02-0.09,0.03-0.09-0.07c0-1.58,0-3.16,0-4.74
			c0-0.02,0.01-0.04-0.01-0.05c0-0.01,0-0.01-0.01-0.02c-0.01-0.02-0.02-0.01-0.04-0.01c-0.1,0.02-0.19,0.05-0.29,0.07
			C10.4,8.85,10.18,8.9,9.96,8.96C9.88,8.98,9.8,8.99,9.72,9.03c0,0,0,0,0,0c-0.03,0-0.05-0.01-0.07,0.02c-0.01,0-0.01,0-0.02,0
			c-0.1,0-0.19,0.04-0.29,0.07C9.32,9.12,9.28,9.11,9.28,9.15C9.27,9.16,9.27,9.17,9.27,9.19z"/>
		<path class="st1" d="M16.32,13.97c0.03,0.04-0.01,0.08-0.02,0.11c-0.09,0.27-0.2,0.52-0.33,0.77c-0.16,0.3-0.34,0.57-0.56,0.83
			c-0.18,0.22-0.39,0.43-0.62,0.61c-0.15,0.12-0.3,0.24-0.47,0.35c-0.19,0.12-0.38,0.23-0.59,0.32c-0.19,0.09-0.39,0.17-0.59,0.23
			c-0.22,0.07-0.45,0.12-0.69,0.16c-0.14,0.02-0.29,0.04-0.43,0.06c-0.22,0.02-0.44,0.02-0.67,0.01c-0.11-0.01-0.22-0.02-0.33-0.03
			c-0.05,0-0.07-0.02-0.07-0.08c0-0.65,0-1.31,0-1.96c0-0.02,0-0.04,0-0.06c0.12-0.05,0.25-0.07,0.37-0.1
			c0.26-0.07,0.52-0.13,0.78-0.19c0.05-0.01,0.06,0,0.06,0.05c0,0.4,0,0.8,0,1.2c0,0.04,0,0.07,0,0.11
			c0.33-0.08,0.66-0.17,0.99-0.25c0.18-0.04,0.36-0.09,0.54-0.13c0.05-0.01,0.07-0.03,0.07-0.08c0.01-0.42,0.01-0.84,0.01-1.25
			c0-0.04,0.02-0.06,0.06-0.07c0.39-0.09,0.77-0.19,1.16-0.29c0.44-0.11,0.87-0.22,1.31-0.32C16.3,13.97,16.31,13.97,16.32,13.97z"
			/>
		<path class="st3" d="M10.96,8.74c0.01,0.02,0.01,0.03,0.01,0.05c0,1.58,0,3.16,0,4.74c0,0.09,0,0.09,0.09,0.07
			c0.1-0.03,0.21-0.05,0.31-0.08c0.01,0,0.03,0,0.05,0c-0.14,0.04-0.28,0.07-0.42,0.11c-0.03,0.01-0.04,0-0.04-0.03
			c0-0.02,0-0.04,0-0.05c0-1.57,0-3.15,0-4.72C10.95,8.79,10.96,8.77,10.96,8.74z"/>
		<path class="st3" d="M9.72,9.03C9.8,8.99,9.88,8.98,9.96,8.96c0.22-0.06,0.44-0.11,0.66-0.17c0.1-0.02,0.19-0.05,0.29-0.07
			c0.01,0,0.03-0.01,0.04,0.01c-0.39,0.1-0.78,0.19-1.16,0.29C9.77,9.02,9.75,9.03,9.72,9.03z"/>
		<path class="st3" d="M9.28,9.15c0.01-0.04,0.05-0.03,0.07-0.03c0.1-0.02,0.19-0.06,0.29-0.07C9.54,9.09,9.44,9.1,9.35,9.13
			C9.33,9.13,9.3,9.14,9.28,9.15z"/>
		<path class="st3" d="M11.41,13.52c0.03-0.02,0.07-0.03,0.1-0.03C11.48,13.51,11.45,13.52,11.41,13.52z"/>
		<path class="st3" d="M9.65,9.05c0.02-0.03,0.04-0.02,0.07-0.02C9.7,9.04,9.67,9.05,9.65,9.05z"/>
	</g>
</g>
</svg>
